<svg id="favicon" xmlns="http://www.w3.org/2000/svg" xmlns:xlink="http://www.w3.org/1999/xlink" width="40.712" height="55.659" viewBox="0 0 40.712 55.659">
  <defs>
    <clipPath id="clip-path">
      <path id="Path_87" data-name="Path 87" d="M60.922,38.187v-4.3H72.936a3.438,3.438,0,0,1,2.619,1.171,3.815,3.815,0,0,1,1.157,2.769,4.529,4.529,0,0,1-1.093,3.241,3.52,3.52,0,0,1-2.766,1.11H60.922Zm0-23.953H72.936a3.436,3.436,0,0,1,2.619,1.171,3.814,3.814,0,0,1,1.157,2.769,4.025,4.025,0,0,1-1.092,2.912,3.522,3.522,0,0,1-2.766,1.11H60.922ZM55.46.616a6.575,6.575,0,0,0-6.567,6.567V49.549h0c0,.053,0,.105,0,.158a6.574,6.574,0,0,0,6.567,6.568H71.3A21.558,21.558,0,0,0,79.648,54.8a16.075,16.075,0,0,0,5.775-3.965,15.1,15.1,0,0,0,3.227-5.646,20.842,20.842,0,0,0,.956-6.238,16.084,16.084,0,0,0-1.547-6.817A12.467,12.467,0,0,0,85.287,28.3a11.972,11.972,0,0,0,2.828-3.946,16.033,16.033,0,0,0,1.491-6.5,21.926,21.926,0,0,0-.956-6.565,14.129,14.129,0,0,0-3.311-5.61,15.845,15.845,0,0,0-5.789-3.735A23.015,23.015,0,0,0,71.3.616Z" transform="translate(-48.893 -0.616)" fill="none"/>
    </clipPath>
  </defs>
  <g id="Group_3" data-name="Group 3" clip-path="url(#clip-path)">
    <path id="Path_23" data-name="Path 23" d="M72.605,0l7,7-7,7" transform="translate(-58.725 -0.361)" fill="#165da7"/>
    <path id="Path_24" data-name="Path 24" d="M72.605,18.97l7-7,7,7" transform="translate(-58.725 -5.322)" fill="#209cd8"/>
    <path id="Path_25" data-name="Path 25" d="M91.575,14.009l-7-7,7-7" transform="translate(-63.687 -0.361)" fill="#81caec"/>
    <path id="Path_26" data-name="Path 26" d="M86.614,0l-7,7-7-7" transform="translate(-58.725 -0.361)" fill="#209cd8"/>
    <path id="Path_27" data-name="Path 27" d="M96.536,0l7,7-7,7" transform="translate(-68.648 -0.361)" fill="#209cd8"/>
    <path id="Path_28" data-name="Path 28" d="M96.536,18.97l7-7,7,7" transform="translate(-68.648 -5.322)" fill="#81caec"/>
    <path id="Path_29" data-name="Path 29" d="M115.506,14.009l-7-7,7-7" transform="translate(-73.609 -0.361)" fill="#209cd8"/>
    <path id="Path_30" data-name="Path 30" d="M110.544,0l-7,7-7-7" transform="translate(-68.648 -0.361)" fill="#81caec"/>
    <path id="Path_31" data-name="Path 31" d="M96.533,23.93l7,7-7,7" transform="translate(-68.647 -10.283)" fill="#f8d10a"/>
    <path id="Path_32" data-name="Path 32" d="M96.533,42.9l7-7,7,7" transform="translate(-68.647 -15.245)" fill="#f4b619"/>
    <path id="Path_33" data-name="Path 33" d="M115.5,37.939l-7-7,7-7" transform="translate(-73.608 -10.283)" fill="#f8d10a"/>
    <path id="Path_34" data-name="Path 34" d="M110.542,23.93l-7,7-7-7" transform="translate(-68.647 -10.283)" fill="#165da7"/>
    <path id="Path_35" data-name="Path 35" d="M72.6,23.93l7,7-7,7" transform="translate(-58.725 -10.283)" fill="#f4b619"/>
    <path id="Path_36" data-name="Path 36" d="M72.6,42.9l7-7,7,7" transform="translate(-58.725 -15.245)" fill="#f8d10a"/>
    <path id="Path_37" data-name="Path 37" d="M91.575,37.939l-7-7,7-7" transform="translate(-63.686 -10.283)" fill="#f4b619"/>
    <path id="Path_38" data-name="Path 38" d="M86.613,23.93l-7,7-7-7" transform="translate(-58.725 -10.283)" fill="#f8d10a"/>
    <path id="Path_39" data-name="Path 39" d="M24.9,0l7,7-7,7" transform="translate(-38.946 -0.361)" fill="#209cd8"/>
    <path id="Path_40" data-name="Path 40" d="M24.9,18.97l7-7,7,7" transform="translate(-38.946 -5.322)" fill="#f4b619"/>
    <path id="Path_41" data-name="Path 41" d="M43.874,14.009l-7-7,7-7" transform="translate(-43.908 -0.361)" fill="#f8d10a"/>
    <path id="Path_42" data-name="Path 42" d="M38.912,0l-7,7-7-7" transform="translate(-38.946 -0.361)" fill="#81caec"/>
    <path id="Path_43" data-name="Path 43" d="M48.834,0l7,7-7,7" transform="translate(-48.869 -0.361)" fill="#209cd8"/>
    <path id="Path_44" data-name="Path 44" d="M48.834,18.97l7-7,7,7" transform="translate(-48.869 -5.322)" fill="#165da7"/>
    <path id="Path_45" data-name="Path 45" d="M67.8,14.009l-7-7,7-7" transform="translate(-53.83 -0.361)" fill="#209cd8"/>
    <path id="Path_46" data-name="Path 46" d="M62.843,0l-7,7-7-7" transform="translate(-48.869 -0.361)" fill="#81caec"/>
    <path id="Path_47" data-name="Path 47" d="M48.834,23.931l7,7-7,7" transform="translate(-48.869 -10.283)" fill="#f8d10a"/>
    <path id="Path_48" data-name="Path 48" d="M48.834,42.9l7-7,7,7" transform="translate(-48.869 -15.245)" fill="#f4b619"/>
    <path id="Path_49" data-name="Path 49" d="M67.8,37.939l-7-7,7-7" transform="translate(-53.83 -10.283)" fill="#f8d10a"/>
    <path id="Path_50" data-name="Path 50" d="M62.843,23.931l-7,7-7-7" transform="translate(-48.869 -10.283)" fill="#209cd8"/>
    <path id="Path_51" data-name="Path 51" d="M24.9,23.93l7,7-7,7" transform="translate(-38.946 -10.283)" fill="#209cd8"/>
    <path id="Path_52" data-name="Path 52" d="M24.9,42.9l7-7,7,7" transform="translate(-38.946 -15.245)" fill="#f8d10a"/>
    <path id="Path_53" data-name="Path 53" d="M43.873,37.939l-7-7,7-7" transform="translate(-43.907 -10.283)" fill="#f4b619"/>
    <path id="Path_54" data-name="Path 54" d="M38.911,23.93l-7,7-7-7" transform="translate(-38.946 -10.283)" fill="#f8d10a"/>
    <path id="Path_55" data-name="Path 55" d="M72.605,47.863l7,7-7,7" transform="translate(-58.725 -20.206)" fill="#51ac47"/>
    <path id="Path_56" data-name="Path 56" d="M72.605,66.833l7-7,7,7" transform="translate(-58.725 -25.168)" fill="#0c9448"/>
    <path id="Path_57" data-name="Path 57" d="M91.575,61.871l-7-7,7-7" transform="translate(-63.687 -20.206)" fill="#d7d823"/>
    <path id="Path_58" data-name="Path 58" d="M86.614,47.863l-7,7-7-7" transform="translate(-58.725 -20.206)" fill="#0c9448"/>
    <path id="Path_59" data-name="Path 59" d="M96.536,47.863l7,7-7,7" transform="translate(-68.648 -20.206)" fill="#51ac47"/>
    <path id="Path_60" data-name="Path 60" d="M96.536,66.833l7-7,7,7" transform="translate(-68.648 -25.168)" fill="#0c9448"/>
    <path id="Path_61" data-name="Path 61" d="M115.506,61.871l-7-7,7-7" transform="translate(-73.609 -20.206)" fill="#51ac47"/>
    <path id="Path_62" data-name="Path 62" d="M110.544,47.863l-7,7-7-7" transform="translate(-68.648 -20.206)" fill="#d7d823"/>
    <path id="Path_63" data-name="Path 63" d="M96.534,71.793l7,7-7,7" transform="translate(-68.647 -30.129)" fill="#d7d823"/>
    <path id="Path_64" data-name="Path 64" d="M96.534,90.763l7-7,7,7" transform="translate(-68.647 -35.091)" fill="#51ac47"/>
    <path id="Path_65" data-name="Path 65" d="M115.5,85.8l-7-7,7-7" transform="translate(-73.609 -30.129)" fill="#0c9448"/>
    <path id="Path_66" data-name="Path 66" d="M110.542,71.793l-7,7-7-7" transform="translate(-68.646 -30.129)" fill="#51ac47"/>
    <path id="Path_67" data-name="Path 67" d="M72.6,71.793l7,7-7,7" transform="translate(-58.725 -30.129)" fill="#51ac47"/>
    <path id="Path_68" data-name="Path 68" d="M72.6,90.763l7-7,7,7" transform="translate(-58.725 -35.091)" fill="#0c9448"/>
    <path id="Path_69" data-name="Path 69" d="M91.575,85.8l-7-7,7-7" transform="translate(-63.686 -30.129)" fill="#51ac47"/>
    <path id="Path_70" data-name="Path 70" d="M86.613,71.793l-7,7-7-7" transform="translate(-58.725 -30.129)" fill="#d7d823"/>
    <path id="Path_71" data-name="Path 71" d="M24.9,47.863l7,7-7,7" transform="translate(-38.946 -20.206)" fill="#209cd8"/>
    <path id="Path_72" data-name="Path 72" d="M24.9,66.833l7-7,7,7" transform="translate(-38.946 -25.168)" fill="#51ac47"/>
    <path id="Path_73" data-name="Path 73" d="M43.874,61.871l-7-7,7-7" transform="translate(-43.908 -20.206)" fill="#f8d10a"/>
    <path id="Path_74" data-name="Path 74" d="M38.912,47.863l-7,7-7-7" transform="translate(-38.946 -20.206)" fill="#0c9448"/>
    <path id="Path_75" data-name="Path 75" d="M48.834,47.863l7,7-7,7" transform="translate(-48.869 -20.206)" fill="#f4b619"/>
    <path id="Path_76" data-name="Path 76" d="M48.834,66.833l7-7,7,7" transform="translate(-48.869 -25.168)" fill="#f8d10a"/>
    <path id="Path_77" data-name="Path 77" d="M67.8,61.871l-7-7,7-7" transform="translate(-53.83 -20.206)" fill="#f4b619"/>
    <path id="Path_78" data-name="Path 78" d="M62.843,47.863l-7,7-7-7" transform="translate(-48.869 -20.206)" fill="#f8d10a"/>
    <path id="Path_79" data-name="Path 79" d="M48.832,71.793l7,7-7,7" transform="translate(-48.868 -30.129)" fill="#d7d823"/>
    <path id="Path_80" data-name="Path 80" d="M48.832,90.763l7-7,7,7" transform="translate(-48.868 -35.091)" fill="#0c9448"/>
    <path id="Path_81" data-name="Path 81" d="M67.8,85.8l-7-7,7-7" transform="translate(-53.829 -30.129)" fill="#d7d823"/>
    <path id="Path_82" data-name="Path 82" d="M62.841,71.793l-7,7-7-7" transform="translate(-48.868 -30.129)" fill="#0c9448"/>
    <path id="Path_83" data-name="Path 83" d="M24.9,71.793l7,7-7,7" transform="translate(-38.946 -30.129)" fill="#209cd8"/>
    <path id="Path_84" data-name="Path 84" d="M24.9,90.763l7-7,7,7" transform="translate(-38.946 -35.091)" fill="#165da7"/>
    <path id="Path_85" data-name="Path 85" d="M43.873,85.8l-7-7,7-7" transform="translate(-43.907 -30.129)" fill="#0c9448"/>
    <path id="Path_86" data-name="Path 86" d="M38.912,71.793l-7,7-7-7" transform="translate(-38.946 -30.129)" fill="#51ac47"/>
    <rect id="Rectangle_10" data-name="Rectangle 10" width="3.232" height="1.693" transform="translate(-4.918 69.431)" fill="#f4b619"/>
  </g>
</svg>
