<svg xmlns="http://www.w3.org/2000/svg" xmlns:xlink="http://www.w3.org/1999/xlink" width="163.199" height="155" viewBox="0 0 163.199 155">
  <defs>
    <clipPath id="clip-path">
      <path id="Path_87" data-name="Path 87" d="M68.935,63.214V56.042H88.951a5.728,5.728,0,0,1,4.364,1.951,6.357,6.357,0,0,1,1.927,4.614,7.547,7.547,0,0,1-1.821,5.4,5.864,5.864,0,0,1-4.608,1.85H68.935Zm0-39.908H88.951a5.725,5.725,0,0,1,4.364,1.952,6.354,6.354,0,0,1,1.927,4.614,6.706,6.706,0,0,1-1.82,4.851,5.868,5.868,0,0,1-4.609,1.85H68.935ZM59.835.616A10.954,10.954,0,0,0,48.893,11.558V82.145H48.9c0,.089-.006.176-.006.263A10.954,10.954,0,0,0,59.835,93.351H86.223a35.918,35.918,0,0,0,13.91-2.456,26.782,26.782,0,0,0,9.622-6.606,25.155,25.155,0,0,0,5.377-9.406,34.726,34.726,0,0,0,1.593-10.392,26.8,26.8,0,0,0-2.577-11.358,20.772,20.772,0,0,0-4.619-6.393,19.947,19.947,0,0,0,4.712-6.575,26.712,26.712,0,0,0,2.484-10.826A36.531,36.531,0,0,0,115.131,18.4a23.54,23.54,0,0,0-5.516-9.347A26.4,26.4,0,0,0,99.97,2.83,38.346,38.346,0,0,0,86.223.616Z" transform="translate(-48.893 -0.616)" fill="none"/>
    </clipPath>
  </defs>
  <g id="footer.logo" transform="translate(-13500 -458.312)">
    <g id="Group_8212" data-name="Group 8212" transform="translate(13500 566.465)">
      <path id="Path_1" data-name="Path 1" d="M126.567,159.1h1.527l2.764-6.685h3.9v-1.335H131.41l2.28-5.512,5.736,13.532H140.9l-7.209-16.979Z" transform="translate(-3.13 -112.269)" fill="#fff"/>
      <rect id="Rectangle_1" data-name="Rectangle 1" width="10.661" height="1.335" transform="translate(33.977 31.114)" fill="#fff"/>
      <path id="Path_2" data-name="Path 2" d="M15.247,159.1h1.527l2.764-6.685h3.9v-1.335H20.09l2.28-5.512L28.106,159.1h1.472l-7.209-16.979Z" transform="translate(-0.377 -112.269)" fill="#fff"/>
      <rect id="Rectangle_2" data-name="Rectangle 2" width="1.445" height="12.146" transform="translate(38.572 34.634)" fill="#fff"/>
      <path id="Path_3" data-name="Path 3" d="M54,157.405a3.85,3.85,0,0,1-1.653-2.459,9.33,9.33,0,0,1-.264-2.394V143.33H50.634v9.36A9.319,9.319,0,0,0,51,155.517a4.782,4.782,0,0,0,2.2,3.116,6.947,6.947,0,0,0,1.269.435l.289.077.417-1.354-.368-.046a1.93,1.93,0,0,1-.808-.34" transform="translate(-1.253 -112.299)" fill="#fff"/>
      <path id="Path_4" data-name="Path 4" d="M60.62,152.277a10.891,10.891,0,0,1-.263,2.446,4.428,4.428,0,0,1-1.765,2.683,2.114,2.114,0,0,1-.835.34l-.4.05.529,1.322.27-.078a6.446,6.446,0,0,0,1.221-.5A4.966,4.966,0,0,0,61.59,155.4a13.511,13.511,0,0,0,.31-3.042v-9.029H60.62Z" transform="translate(-1.418 -112.299)" fill="#fff"/>
      <path id="Path_5" data-name="Path 5" d="M75.125,151.787l1.006.956,2.751-4.851v11.128h1.308V143.277l-.585-.142Z" transform="translate(-1.857 -112.294)" fill="#fff"/>
      <path id="Path_6" data-name="Path 6" d="M66.851,143.278v15.742h1.335V147.892l2.752,4.851,1.007-.956-4.51-8.653Z" transform="translate(-1.653 -112.294)" fill="#fff"/>
      <rect id="Rectangle_3" data-name="Rectangle 3" width="1.419" height="15.694" transform="translate(86.171 31.031)" fill="#fff"/>
      <path id="Path_7" data-name="Path 7" d="M108.7,143.278v15.742h1.336V147.892l2.751,4.851,1.007-.956-4.51-8.653Z" transform="translate(-2.689 -112.294)" fill="#fff"/>
      <path id="Path_8" data-name="Path 8" d="M116.979,151.787l1.007.956,2.75-4.85v11.127h1.308V143.277l-.585-.142Z" transform="translate(-2.893 -112.294)" fill="#fff"/>
      <rect id="Rectangle_4" data-name="Rectangle 4" width="1.445" height="15.694" transform="translate(142.518 31.031)" fill="#fff"/>
      <rect id="Rectangle_5" data-name="Rectangle 5" width="4.361" height="1.391" transform="translate(145.792 45.334)" fill="#fff"/>
      <rect id="Rectangle_6" data-name="Rectangle 6" width="4.361" height="1.391" transform="translate(158.031 45.334)" fill="#fff"/>
      <rect id="Rectangle_7" data-name="Rectangle 7" width="1.446" height="15.694" transform="translate(154.759 31.031)" fill="#fff"/>
      <path id="Path_9" data-name="Path 9" d="M8.453,151.724a3.82,3.82,0,0,0-1.08-.876,3.717,3.717,0,0,0,1.506-1.367,3.916,3.916,0,0,0,.568-2.786A3.8,3.8,0,0,0,7.9,144.186a4.732,4.732,0,0,0-1.163-.661,5.545,5.545,0,0,0-1.457-.337c-.529-.055-.975-.088-1.331-.1-.116,0-.25,0-.4,0q-.455,0-1.117.018-.97.028-1.3.027H.826v1.429h.311c.1,0,2.341-.01,2.626-.023.094,0,.188-.007.283-.007a7.03,7.03,0,0,1,1.479.166A3.8,3.8,0,0,1,7,145.313a2.53,2.53,0,0,1,1.087,1.807,2.422,2.422,0,0,1-.628,1.949,3.057,3.057,0,0,1-2.146.995l-.282.025v1.521l.273.032a3.019,3.019,0,0,1,2.207,1.2,2.9,2.9,0,0,1,.589,2.2,2.436,2.436,0,0,1-1.045,1.772,4.217,4.217,0,0,1-1.551.691,6.866,6.866,0,0,1-1.553.187l-.183,0q-.437-.013-.9-.014-.309,0-.628.007V146.75H.826v12.3h.31q.382,0,1.692.055.765.032,1.283.031.395,0,.651-.018a7.916,7.916,0,0,0,1.577-.329,5,5,0,0,0,1.724-.876,3.751,3.751,0,0,0,1.361-1.962A4.291,4.291,0,0,0,9.5,153.7a4.725,4.725,0,0,0-1.044-1.972" transform="translate(-0.02 -112.293)" fill="#fff"/>
      <rect id="Rectangle_8" data-name="Rectangle 8" width="163.199" height="0.726" transform="translate(0 22.196)" fill="#fff"/>
      <path id="Path_10" data-name="Path 10" d="M24.022,124.553a4.6,4.6,0,0,1-4.908,4.933,4.72,4.72,0,0,1-4.933-5.009v-.784a5.63,5.63,0,0,1,1.214-2.909c.354.152.683.329,1.037.506a4.923,4.923,0,0,0-.683,2.4v.86c0,2.327.759,3.693,3.365,3.693,2.328,0,3.314-1.417,3.314-3.693v-1.746a7.41,7.41,0,0,0-2.555-5.236,7.526,7.526,0,0,1-2.454-4.706v-1.087h1.441v1.087c0,1.416.861,2.884,2.606,4.452a7.274,7.274,0,0,1,2.555,5.49Z" transform="translate(-0.351 -111.519)" fill="#fff"/>
      <path id="Path_11" data-name="Path 11" d="M59.506,124.473c0,3.188-1.619,5.009-4.6,5.009-3.112,0-5.161-1.8-5.161-4.7v-1.088a4,4,0,0,1,.532-2.074h1.417a9.086,9.086,0,0,0-.379,2.581v.607a3.308,3.308,0,0,0,3.592,3.441c2.226,0,3.087-1.265,3.087-3.845V114.025c0-.633-.76-1.291-2.1-1.291q-1.823,0-1.822,1.291V118.3H52.9v-4.276q0-1.292-1.518-1.291a1.311,1.311,0,0,0-1.138.658h.025a1.138,1.138,0,0,1-.911.581,2.64,2.64,0,0,1-1.568-.885V111.7a3.294,3.294,0,0,0,1.644.835c.607,0,1.088-.935,1.771-.935a2.4,2.4,0,0,1,2.276,1.24,3.781,3.781,0,0,1,2.5-1.24c1.72,0,3.517,1.113,3.517,2.428Z" transform="translate(-1.181 -111.514)" fill="#fff"/>
      <path id="Path_12" data-name="Path 12" d="M125.542,117.994c0-3.314-.582-5.186-3.06-5.186-2.1,0-3.138,1.087-3.138,3.567v6.5h-1.568v-6.5c0-2.479-1.012-3.567-3.112-3.567-2.276,0-3.111,1.822-3.111,5.312v1.087a13.739,13.739,0,0,0,4.351,10.019h-1.9a13.978,13.978,0,0,1-4-9.968v-1.138c0-3.719,1.164-6.6,4.655-6.6a4.17,4.17,0,0,1,3.972,2.808,3.849,3.849,0,0,1,3.846-2.808c3.414,0,4.6,2.96,4.6,6.3v1.441a14.158,14.158,0,0,1-3.87,9.993h-1.923a13.63,13.63,0,0,0,4.251-10.119Z" transform="translate(-2.72 -111.512)" fill="#fff"/>
      <path id="Path_13" data-name="Path 13" d="M162.357,111.6v1.345c1.516.436,2.306,1.97,2.306,4.872v2a24.821,24.821,0,0,1-2.074,9.437h1.72a26.32,26.32,0,0,0,1.948-9.512v-1.923c0-3.81-1.413-5.811-3.9-6.217" transform="translate(-4.014 -111.514)" fill="#fff"/>
      <path id="Path_14" data-name="Path 14" d="M156.264,117.718v2.1a25.311,25.311,0,0,0,2,9.436h1.695a24.007,24.007,0,0,1-2.125-9.436v-2c0-2.89.7-4.454,2.331-4.882v-1.321c-2.3.444-3.9,2.432-3.9,6.1" transform="translate(-3.865 -111.515)" fill="#fff"/>
      <path id="Path_15" data-name="Path 15" d="M82.983,111.628v1.345c1.516.436,2.306,1.97,2.306,4.872v2a24.821,24.821,0,0,1-2.074,9.437h1.72a26.319,26.319,0,0,0,1.948-9.512v-1.923c0-3.81-1.413-5.811-3.9-6.217" transform="translate(-2.052 -111.515)" fill="#fff"/>
      <path id="Path_16" data-name="Path 16" d="M76.891,117.744v2.1a25.311,25.311,0,0,0,2,9.436h1.7a24.007,24.007,0,0,1-2.125-9.436v-2c0-2.89.7-4.454,2.331-4.882v-1.322c-2.3.444-3.9,2.432-3.9,6.1" transform="translate(-1.901 -111.515)" fill="#fff"/>
      <path id="Path_17" data-name="Path 17" d="M6.826,117.287a4.85,4.85,0,0,0,.557-2.328c0-1.391-2.732-1.872-2.783-3.441H3.056c.051,2.075,2.783,2.428,2.783,3.542a5.476,5.476,0,0,1-.4,2.227,4.853,4.853,0,0,0-4.453,4.882v2.581a4.859,4.859,0,0,0,3.9,4.618v-1.283a3.5,3.5,0,0,1-2.331-3.613v-2.15c0-2.353,1.24-3.871,3.339-3.871,1.9,0,3.339,1.518,3.339,3.794v2.379a3.338,3.338,0,0,1-2.3,3.464v1.269a4.976,4.976,0,0,0,3.9-4.581v-2.606c0-2.833-2.707-4.882-4-4.882" transform="translate(-0.024 -111.512)" fill="#fff"/>
      <path id="Path_18" data-name="Path 18" d="M39.5,111.518a4.931,4.931,0,0,0-3.693,1.72,4.283,4.283,0,0,0-1.845-1.394v1.425a3.039,3.039,0,0,1,1.466,2.8v7.006c0,3.238-.962,5.161-3.289,5.161-2.176,0-3.214-1.29-3.214-5.742v-4.2c0-3.566.97-5.357,2.994-5.478v-1.293c-2.6.09-4.537,1.789-4.537,6.316v4.832c0,4.756,1.873,6.805,4.756,6.805,3.06,0,4.831-2.631,4.831-6.476v-6.931a3.243,3.243,0,0,0-.733-2.05,4.037,4.037,0,0,1,2.909-1.214c1.441,0,2.428.43,2.884,1.265v-.024a6.878,6.878,0,0,1,.683,3.364v2.657a12.169,12.169,0,0,1-3.769,9.41h1.67c2.328-2.074,3.644-5.363,3.644-9.537v-1.771c0-4.832-1.671-6.653-4.756-6.653" transform="translate(-0.677 -111.512)" fill="#fff"/>
      <path id="Path_19" data-name="Path 19" d="M145,114.2c-.632-1.8-1.7-2.682-3.213-2.682s-2.581.936-3.163,2.859a3.8,3.8,0,0,0-3.693-2.732c-2.833,0-4.3,2.252-4.3,5.085v.86q0,4.971,7.311,8.88a34.662,34.662,0,0,0-3.567.758c.3.4.607.861.935,1.266a8.98,8.98,0,0,1,4.25-1.164,8.3,8.3,0,0,1,5.54,1.9h2.251c-.986-1.392-2.757-2.252-5.312-2.783-5.009-1.011-9.841-4.4-9.841-8.728v-.91c0-2.581,1.138-3.871,2.732-3.871,1.9,0,2.859.684,2.859,3.263v2.732h1.391v-2.681c0-2.479,1.138-3.44,2.606-3.44,1.7,0,2.555,1.011,2.555,3.541v2.58h1.416v-2.6c0-2.265.821-3.088,2-3.317v-1.272A3.834,3.834,0,0,0,145,114.2" transform="translate(-3.23 -111.512)" fill="#fff"/>
      <path id="Path_20" data-name="Path 20" d="M150.243,111.858v1.405a3.156,3.156,0,0,1,1.55,2.665v.987a7.794,7.794,0,0,1-3.087,6.02H150.2a8.174,8.174,0,0,0,3.112-5.92V115.8a4.354,4.354,0,0,0-3.068-3.944" transform="translate(-3.677 -111.521)" fill="#fff"/>
      <path id="Path_21" data-name="Path 21" d="M101.543,111.518c-2.428,0-4.6,1.493-4.6,3.011v.759h1.543v-.759c0-.936,1.063-1.72,3.036-1.72,1.9,0,3.263.987,3.263,2.176v3.971l-.127.025a3.457,3.457,0,0,0-3.314-2,4.978,4.978,0,0,0-4.958,5.009v2.479a4.6,4.6,0,0,0,3.9,4.913v-1.3c-1.4-.39-2.331-1.6-2.331-3.614v-2.479a3.535,3.535,0,0,1,3.364-3.769c1.923,0,3.315,1.113,3.315,3.72v2.529c0,2.078-.977,3.234-2.306,3.612v1.3a4.57,4.57,0,0,0,3.9-4.605v-9.791c0-2-2.4-3.466-4.68-3.466" transform="translate(-2.384 -111.512)" fill="#fff"/>
      <path id="Path_22" data-name="Path 22" d="M68.462,111.512c-2.428,0-4.6,1.493-4.6,3.011v.759H65.4v-.759c0-.936,1.063-1.72,3.036-1.72,1.9,0,3.263.987,3.263,2.176v3.971l-.127.025a3.457,3.457,0,0,0-3.314-2,4.978,4.978,0,0,0-4.958,5.009v2.479a4.6,4.6,0,0,0,3.9,4.913v-1.3c-1.4-.39-2.331-1.6-2.331-3.614v-2.479a3.535,3.535,0,0,1,3.364-3.769c1.923,0,3.315,1.113,3.315,3.72v2.529c0,2.078-.977,3.234-2.306,3.612v1.3a4.57,4.57,0,0,0,3.9-4.605v-9.791c0-2-2.4-3.466-4.68-3.466" transform="translate(-1.566 -111.512)" fill="#fff"/>
    </g>
    <g id="Group_4" data-name="Group 4" transform="translate(13547.684 458.311)">
      <g id="Group_3" data-name="Group 3" clip-path="url(#clip-path)">
        <path id="Path_23" data-name="Path 23" d="M72.605,0l11.67,11.67L72.605,23.34" transform="translate(-49.479 -0.601)" fill="#165da7"/>
        <path id="Path_24" data-name="Path 24" d="M72.605,23.636l11.67-11.67,11.67,11.67" transform="translate(-49.479 -0.897)" fill="#209cd8"/>
        <path id="Path_25" data-name="Path 25" d="M96.241,23.34,84.571,11.67,96.241,0" transform="translate(-49.775 -0.601)" fill="#81caec"/>
        <path id="Path_26" data-name="Path 26" d="M95.945,0,84.275,11.67,72.605,0" transform="translate(-49.479 -0.601)" fill="#209cd8"/>
        <path id="Path_27" data-name="Path 27" d="M96.536,0l11.67,11.67L96.536,23.34" transform="translate(-50.071 -0.601)" fill="#209cd8"/>
        <path id="Path_28" data-name="Path 28" d="M96.536,23.636l11.67-11.67,11.67,11.67" transform="translate(-50.071 -0.897)" fill="#81caec"/>
        <path id="Path_29" data-name="Path 29" d="M120.171,23.34,108.5,11.67,120.171,0" transform="translate(-50.367 -0.601)" fill="#209cd8"/>
        <path id="Path_30" data-name="Path 30" d="M119.875,0l-11.67,11.67L96.535,0" transform="translate(-50.071 -0.601)" fill="#81caec"/>
        <path id="Path_31" data-name="Path 31" d="M96.533,23.93,108.2,35.6l-11.67,11.67" transform="translate(-50.071 -1.193)" fill="#f8d10a"/>
        <path id="Path_32" data-name="Path 32" d="M96.533,47.566,108.2,35.9l11.671,11.67" transform="translate(-50.071 -1.488)" fill="#f4b619"/>
        <path id="Path_33" data-name="Path 33" d="M120.169,47.27,108.5,35.6l11.67-11.67" transform="translate(-50.367 -1.193)" fill="#f8d10a"/>
        <path id="Path_34" data-name="Path 34" d="M119.873,23.93,108.2,35.6,96.533,23.93" transform="translate(-50.071 -1.193)" fill="#165da7"/>
        <path id="Path_35" data-name="Path 35" d="M72.6,23.93,84.274,35.6,72.6,47.271" transform="translate(-49.479 -1.193)" fill="#f4b619"/>
        <path id="Path_36" data-name="Path 36" d="M72.6,47.566,84.274,35.9l11.67,11.67" transform="translate(-49.479 -1.488)" fill="#f8d10a"/>
        <path id="Path_37" data-name="Path 37" d="M96.24,47.27,84.57,35.6,96.24,23.93" transform="translate(-49.775 -1.193)" fill="#f4b619"/>
        <path id="Path_38" data-name="Path 38" d="M95.944,23.93,84.274,35.6,72.6,23.93" transform="translate(-49.479 -1.193)" fill="#f8d10a"/>
        <path id="Path_39" data-name="Path 39" d="M24.9,0l11.67,11.67L24.9,23.34" transform="translate(-48.3 -0.601)" fill="#209cd8"/>
        <path id="Path_40" data-name="Path 40" d="M24.9,23.636l11.67-11.67,11.67,11.67" transform="translate(-48.3 -0.897)" fill="#f4b619"/>
        <path id="Path_41" data-name="Path 41" d="M48.54,23.34,36.87,11.67,48.54,0" transform="translate(-48.596 -0.601)" fill="#f8d10a"/>
        <path id="Path_42" data-name="Path 42" d="M48.244,0,36.574,11.67,24.9,0" transform="translate(-48.3 -0.601)" fill="#81caec"/>
        <path id="Path_43" data-name="Path 43" d="M48.834,0,60.5,11.67,48.834,23.34" transform="translate(-48.892 -0.601)" fill="#209cd8"/>
        <path id="Path_44" data-name="Path 44" d="M48.834,23.636,60.5,11.966l11.67,11.67" transform="translate(-48.892 -0.897)" fill="#165da7"/>
        <path id="Path_45" data-name="Path 45" d="M72.47,23.34,60.8,11.67,72.47,0" transform="translate(-49.187 -0.601)" fill="#209cd8"/>
        <path id="Path_46" data-name="Path 46" d="M72.174,0,60.5,11.67,48.834,0" transform="translate(-48.892 -0.601)" fill="#81caec"/>
        <path id="Path_47" data-name="Path 47" d="M48.834,23.931,60.5,35.6l-11.67,11.67" transform="translate(-48.892 -1.193)" fill="#f8d10a"/>
        <path id="Path_48" data-name="Path 48" d="M48.834,47.566,60.5,35.9l11.67,11.67" transform="translate(-48.892 -1.488)" fill="#f4b619"/>
        <path id="Path_49" data-name="Path 49" d="M72.471,47.27,60.8,35.6l11.67-11.67" transform="translate(-49.187 -1.193)" fill="#f8d10a"/>
        <path id="Path_50" data-name="Path 50" d="M72.175,23.931,60.5,35.6l-11.67-11.67" transform="translate(-48.892 -1.193)" fill="#209cd8"/>
        <path id="Path_51" data-name="Path 51" d="M24.9,23.93,36.573,35.6,24.9,47.271" transform="translate(-48.3 -1.193)" fill="#209cd8"/>
        <path id="Path_52" data-name="Path 52" d="M24.9,47.566,36.573,35.9l11.67,11.67" transform="translate(-48.3 -1.488)" fill="#f8d10a"/>
        <path id="Path_53" data-name="Path 53" d="M48.539,47.27,36.869,35.6l11.67-11.67" transform="translate(-48.596 -1.193)" fill="#f4b619"/>
        <path id="Path_54" data-name="Path 54" d="M48.243,23.93,36.573,35.6,24.9,23.93" transform="translate(-48.3 -1.193)" fill="#f8d10a"/>
        <path id="Path_55" data-name="Path 55" d="M72.605,47.862l11.67,11.67L72.605,71.2" transform="translate(-49.479 -1.784)" fill="#51ac47"/>
        <path id="Path_56" data-name="Path 56" d="M72.605,71.5l11.67-11.67L95.946,71.5" transform="translate(-49.479 -2.08)" fill="#0c9448"/>
        <path id="Path_57" data-name="Path 57" d="M96.241,71.2l-11.67-11.67,11.67-11.67" transform="translate(-49.775 -1.784)" fill="#d7d823"/>
        <path id="Path_58" data-name="Path 58" d="M95.945,47.862l-11.67,11.67-11.67-11.67" transform="translate(-49.479 -1.784)" fill="#0c9448"/>
        <path id="Path_59" data-name="Path 59" d="M96.536,47.862l11.67,11.67L96.536,71.2" transform="translate(-50.071 -1.784)" fill="#51ac47"/>
        <path id="Path_60" data-name="Path 60" d="M96.536,71.5l11.67-11.67,11.67,11.67" transform="translate(-50.071 -2.08)" fill="#0c9448"/>
        <path id="Path_61" data-name="Path 61" d="M120.171,71.2,108.5,59.532l11.67-11.67" transform="translate(-50.367 -1.784)" fill="#51ac47"/>
        <path id="Path_62" data-name="Path 62" d="M119.875,47.862l-11.67,11.67-11.67-11.67" transform="translate(-50.071 -1.784)" fill="#d7d823"/>
        <path id="Path_63" data-name="Path 63" d="M96.534,71.793,108.2,83.463,96.534,95.133" transform="translate(-50.071 -2.376)" fill="#d7d823"/>
        <path id="Path_64" data-name="Path 64" d="M96.534,95.429,108.2,83.759l11.671,11.67" transform="translate(-50.071 -2.672)" fill="#51ac47"/>
        <path id="Path_65" data-name="Path 65" d="M120.17,95.133,108.5,83.463l11.67-11.67" transform="translate(-50.367 -2.376)" fill="#0c9448"/>
        <path id="Path_66" data-name="Path 66" d="M119.874,71.793,108.2,83.463,96.533,71.793" transform="translate(-50.071 -2.376)" fill="#51ac47"/>
        <path id="Path_67" data-name="Path 67" d="M72.6,71.793l11.67,11.67L72.6,95.133" transform="translate(-49.479 -2.376)" fill="#51ac47"/>
        <path id="Path_68" data-name="Path 68" d="M72.6,95.429l11.67-11.67,11.67,11.67" transform="translate(-49.479 -2.672)" fill="#0c9448"/>
        <path id="Path_69" data-name="Path 69" d="M96.24,95.133,84.57,83.463l11.67-11.67" transform="translate(-49.775 -2.376)" fill="#51ac47"/>
        <path id="Path_70" data-name="Path 70" d="M95.944,71.793l-11.67,11.67L72.6,71.793" transform="translate(-49.479 -2.376)" fill="#d7d823"/>
        <path id="Path_71" data-name="Path 71" d="M24.9,47.862l11.67,11.67L24.9,71.2" transform="translate(-48.3 -1.784)" fill="#209cd8"/>
        <path id="Path_72" data-name="Path 72" d="M24.9,71.5l11.67-11.67L48.244,71.5" transform="translate(-48.3 -2.08)" fill="#51ac47"/>
        <path id="Path_73" data-name="Path 73" d="M48.54,71.2,36.87,59.532l11.67-11.67" transform="translate(-48.596 -1.784)" fill="#f8d10a"/>
        <path id="Path_74" data-name="Path 74" d="M48.244,47.862l-11.67,11.67L24.9,47.862" transform="translate(-48.3 -1.784)" fill="#0c9448"/>
        <path id="Path_75" data-name="Path 75" d="M48.834,47.862,60.5,59.533,48.834,71.2" transform="translate(-48.892 -1.784)" fill="#f4b619"/>
        <path id="Path_76" data-name="Path 76" d="M48.834,71.5,60.5,59.828,72.174,71.5" transform="translate(-48.892 -2.08)" fill="#f8d10a"/>
        <path id="Path_77" data-name="Path 77" d="M72.47,71.2,60.8,59.532l11.67-11.67" transform="translate(-49.187 -1.784)" fill="#f4b619"/>
        <path id="Path_78" data-name="Path 78" d="M72.174,47.862,60.5,59.533l-11.67-11.67" transform="translate(-48.892 -1.784)" fill="#f8d10a"/>
        <path id="Path_79" data-name="Path 79" d="M48.832,71.793,60.5,83.463l-11.67,11.67" transform="translate(-48.891 -2.376)" fill="#d7d823"/>
        <path id="Path_80" data-name="Path 80" d="M48.832,95.429,60.5,83.759l11.67,11.67" transform="translate(-48.891 -2.672)" fill="#0c9448"/>
        <path id="Path_81" data-name="Path 81" d="M72.468,95.133,60.8,83.463l11.67-11.67" transform="translate(-49.187 -2.376)" fill="#d7d823"/>
        <path id="Path_82" data-name="Path 82" d="M72.172,71.793,60.5,83.463l-11.67-11.67" transform="translate(-48.891 -2.376)" fill="#0c9448"/>
        <path id="Path_83" data-name="Path 83" d="M24.9,71.793l11.67,11.67L24.9,95.133" transform="translate(-48.3 -2.376)" fill="#209cd8"/>
        <path id="Path_84" data-name="Path 84" d="M24.9,95.429l11.67-11.67,11.67,11.67" transform="translate(-48.3 -2.672)" fill="#165da7"/>
        <path id="Path_85" data-name="Path 85" d="M48.539,95.133l-11.67-11.67,11.67-11.67" transform="translate(-48.596 -2.376)" fill="#0c9448"/>
        <path id="Path_86" data-name="Path 86" d="M48.243,71.793l-11.67,11.67L24.9,71.793" transform="translate(-48.3 -2.376)" fill="#51ac47"/>
        <rect id="Rectangle_10" data-name="Rectangle 10" width="5.384" height="2.821" transform="translate(-8.194 115.681)" fill="#f4b619"/>
      </g>
    </g>
  </g>
</svg>
