<svg id="main.logo" xmlns="http://www.w3.org/2000/svg" xmlns:xlink="http://www.w3.org/1999/xlink" width="97.952" height="93.391" viewBox="0 0 97.952 93.391">
  <defs>
    <clipPath id="clip-path">
      <rect id="Rectangle_9" data-name="Rectangle 9" width="97.952" height="93.391" fill="none"/>
    </clipPath>
    <clipPath id="clip-path-2">
      <path id="Path_87" data-name="Path 87" d="M60.922,38.187v-4.3H72.936a3.438,3.438,0,0,1,2.619,1.171,3.815,3.815,0,0,1,1.157,2.769,4.529,4.529,0,0,1-1.093,3.241,3.52,3.52,0,0,1-2.766,1.11H60.922Zm0-23.953H72.936a3.436,3.436,0,0,1,2.619,1.171,3.814,3.814,0,0,1,1.157,2.769,4.025,4.025,0,0,1-1.092,2.912,3.522,3.522,0,0,1-2.766,1.11H60.922ZM55.46.616a6.575,6.575,0,0,0-6.567,6.567V49.549h0c0,.053,0,.105,0,.158a6.574,6.574,0,0,0,6.567,6.568H71.3A21.558,21.558,0,0,0,79.648,54.8a16.075,16.075,0,0,0,5.775-3.965,15.1,15.1,0,0,0,3.227-5.646,20.842,20.842,0,0,0,.956-6.238,16.084,16.084,0,0,0-1.547-6.817A12.467,12.467,0,0,0,85.287,28.3a11.972,11.972,0,0,0,2.828-3.946,16.033,16.033,0,0,0,1.491-6.5,21.926,21.926,0,0,0-.956-6.565,14.129,14.129,0,0,0-3.311-5.61,15.845,15.845,0,0,0-5.789-3.735A23.015,23.015,0,0,0,71.3.616Z" transform="translate(-48.893 -0.616)" fill="none"/>
    </clipPath>
  </defs>
  <path id="Path_1" data-name="Path 1" d="M126.567,152.316h.917l1.659-4.012h2.339v-.8h-2.007l1.369-3.308,3.442,8.122h.883l-4.327-10.191Z" transform="translate(-52.48 -58.931)" fill="#212121"/>
  <rect id="Rectangle_1" data-name="Rectangle 1" width="6.399" height="0.801" transform="translate(20.393 83.949)" fill="#212121"/>
  <path id="Path_2" data-name="Path 2" d="M15.247,152.316h.917l1.659-4.012h2.338v-.8H18.154l1.369-3.308,3.442,8.122h.883l-4.327-10.191Z" transform="translate(-6.322 -58.931)" fill="#212121"/>
  <rect id="Rectangle_2" data-name="Rectangle 2" width="0.867" height="7.29" transform="translate(23.151 86.061)" fill="#212121"/>
  <g id="Group_2" data-name="Group 2">
    <g id="Group_1" data-name="Group 1" clip-path="url(#clip-path)">
      <path id="Path_3" data-name="Path 3" d="M52.652,151.778a2.311,2.311,0,0,1-.992-1.476,5.6,5.6,0,0,1-.159-1.437V143.33h-.868v5.618a5.594,5.594,0,0,0,.22,1.7,2.87,2.87,0,0,0,1.319,1.87,4.17,4.17,0,0,0,.762.261l.173.046.251-.812-.221-.028a1.158,1.158,0,0,1-.485-.2" transform="translate(-20.995 -59.431)" fill="#212121"/>
      <path id="Path_4" data-name="Path 4" d="M59.316,148.7a6.537,6.537,0,0,1-.158,1.468,2.658,2.658,0,0,1-1.059,1.61,1.269,1.269,0,0,1-.5.2l-.24.03.317.793.162-.047a3.87,3.87,0,0,0,.733-.3,2.98,2.98,0,0,0,1.328-1.886,8.109,8.109,0,0,0,.186-1.826v-5.419h-.768Z" transform="translate(-23.783 -59.431)" fill="#212121"/>
      <path id="Path_5" data-name="Path 5" d="M75.125,148.328l.6.574,1.651-2.912v6.679h.785V143.22l-.351-.085Z" transform="translate(-31.15 -59.35)" fill="#212121"/>
      <path id="Path_6" data-name="Path 6" d="M66.851,143.22v9.448h.8V145.99L69.3,148.9l.6-.574L67.2,143.134Z" transform="translate(-27.719 -59.35)" fill="#212121"/>
      <rect id="Rectangle_3" data-name="Rectangle 3" width="0.852" height="9.42" transform="translate(51.72 83.899)" fill="#212121"/>
      <path id="Path_7" data-name="Path 7" d="M108.7,143.22v9.448h.8V145.99l1.651,2.912.6-.574-2.707-5.193Z" transform="translate(-45.074 -59.35)" fill="#212121"/>
      <path id="Path_8" data-name="Path 8" d="M116.979,148.328l.6.574,1.651-2.911v6.678h.785V143.22l-.351-.085Z" transform="translate(-48.505 -59.35)" fill="#212121"/>
      <rect id="Rectangle_4" data-name="Rectangle 4" width="0.867" height="9.42" transform="translate(85.539 83.899)" fill="#212121"/>
      <rect id="Rectangle_5" data-name="Rectangle 5" width="2.618" height="0.835" transform="translate(87.504 92.484)" fill="#212121"/>
      <rect id="Rectangle_6" data-name="Rectangle 6" width="2.618" height="0.835" transform="translate(94.85 92.484)" fill="#212121"/>
      <rect id="Rectangle_7" data-name="Rectangle 7" width="0.868" height="9.42" transform="translate(92.885 83.899)" fill="#212121"/>
      <path id="Path_9" data-name="Path 9" d="M5.4,148.27a2.292,2.292,0,0,0-.648-.526,2.231,2.231,0,0,0,.9-.821A2.35,2.35,0,0,0,6,145.251a2.279,2.279,0,0,0-.928-1.506,2.841,2.841,0,0,0-.7-.4,3.329,3.329,0,0,0-.875-.2c-.317-.033-.585-.053-.8-.059-.07,0-.15,0-.239,0q-.273,0-.67.011-.582.017-.779.016H.826v.858h.187c.057,0,1.4-.006,1.576-.014.056,0,.113,0,.17,0a4.218,4.218,0,0,1,.888.1,2.282,2.282,0,0,1,.886.372,1.519,1.519,0,0,1,.653,1.085,1.454,1.454,0,0,1-.377,1.17,1.835,1.835,0,0,1-1.288.6l-.169.015v.913l.164.019a1.812,1.812,0,0,1,1.325.718,1.741,1.741,0,0,1,.354,1.318,1.462,1.462,0,0,1-.627,1.064,2.531,2.531,0,0,1-.931.415,4.123,4.123,0,0,1-.932.112l-.11,0q-.263-.008-.54-.008-.185,0-.377,0v-6.557H.826v7.38h.186q.229,0,1.016.033.459.019.77.019.237,0,.39-.011a4.751,4.751,0,0,0,.947-.2,3,3,0,0,0,1.035-.526,2.251,2.251,0,0,0,.817-1.178,2.575,2.575,0,0,0,.043-1.351A2.836,2.836,0,0,0,5.4,148.27" transform="translate(-0.342 -59.329)" fill="#212121"/>
      <rect id="Rectangle_8" data-name="Rectangle 8" width="97.952" height="0.436" transform="translate(0 78.596)" fill="#212121"/>
      <path id="Path_10" data-name="Path 10" d="M20.088,119.446a2.762,2.762,0,0,1-2.946,2.961,2.833,2.833,0,0,1-2.961-3.006v-.471a3.379,3.379,0,0,1,.729-1.746c.212.091.41.2.622.3a2.955,2.955,0,0,0-.41,1.442v.516c0,1.4.455,2.217,2.019,2.217,1.4,0,1.989-.851,1.989-2.217V118.4a4.448,4.448,0,0,0-1.534-3.143,4.517,4.517,0,0,1-1.473-2.824v-.653h.865v.653a3.813,3.813,0,0,0,1.564,2.672,4.366,4.366,0,0,1,1.534,3.295Z" transform="translate(-5.88 -46.348)" fill="#212121"/>
      <path id="Path_11" data-name="Path 11" d="M54.823,119.325c0,1.914-.972,3.006-2.763,3.006a2.774,2.774,0,0,1-3.1-2.824v-.653a2.4,2.4,0,0,1,.319-1.245h.851a5.453,5.453,0,0,0-.228,1.549v.364a1.986,1.986,0,0,0,2.156,2.065c1.336,0,1.853-.759,1.853-2.308v-6.225c0-.38-.456-.775-1.26-.775q-1.094,0-1.093.775v2.566h-.7v-2.566q0-.775-.911-.775a.787.787,0,0,0-.683.4h.015a.683.683,0,0,1-.547.349,1.584,1.584,0,0,1-.941-.531v-.835a1.977,1.977,0,0,0,.987.5c.364,0,.653-.561,1.063-.561a1.442,1.442,0,0,1,1.366.744,2.269,2.269,0,0,1,1.5-.744c1.033,0,2.111.668,2.111,1.458Z" transform="translate(-19.817 -46.273)" fill="#212121"/>
      <path id="Path_12" data-name="Path 12" d="M119.332,115.4c0-1.989-.349-3.112-1.837-3.112-1.261,0-1.884.653-1.884,2.141v3.9h-.941v-3.9c0-1.488-.608-2.141-1.868-2.141-1.366,0-1.867,1.093-1.867,3.188v.653a8.246,8.246,0,0,0,2.611,6.013h-1.139a8.389,8.389,0,0,1-2.4-5.983v-.683c0-2.232.7-3.963,2.794-3.963a2.5,2.5,0,0,1,2.384,1.685,2.31,2.31,0,0,1,2.309-1.685c2.049,0,2.762,1.777,2.762,3.781v.865a8.5,8.5,0,0,1-2.323,6H116.78a8.18,8.18,0,0,0,2.552-6.074Z" transform="translate(-45.614 -46.24)" fill="#212121"/>
      <path id="Path_13" data-name="Path 13" d="M162.357,111.6v.807c.91.262,1.384,1.182,1.384,2.924v1.2A14.9,14.9,0,0,1,162.5,122.2h1.033a15.8,15.8,0,0,0,1.169-5.709v-1.154c0-2.287-.848-3.488-2.34-3.732" transform="translate(-67.32 -46.275)" fill="#212121"/>
      <path id="Path_14" data-name="Path 14" d="M156.264,115.279v1.26a15.191,15.191,0,0,0,1.2,5.663h1.017a14.409,14.409,0,0,1-1.275-5.663v-1.2c0-1.734.42-2.673,1.4-2.93v-.793c-1.378.266-2.34,1.46-2.34,3.663" transform="translate(-64.794 -46.281)" fill="#212121"/>
      <path id="Path_15" data-name="Path 15" d="M82.983,111.628v.807c.91.262,1.384,1.182,1.384,2.924v1.2a14.9,14.9,0,0,1-1.245,5.664h1.033a15.8,15.8,0,0,0,1.169-5.709V115.36c0-2.287-.848-3.488-2.34-3.732" transform="translate(-34.408 -46.286)" fill="#212121"/>
      <path id="Path_16" data-name="Path 16" d="M76.891,115.3v1.26a15.192,15.192,0,0,0,1.2,5.663h1.017a14.409,14.409,0,0,1-1.275-5.663v-1.2c0-1.734.42-2.673,1.4-2.93v-.793c-1.378.266-2.34,1.46-2.34,3.663" transform="translate(-31.882 -46.292)" fill="#212121"/>
      <path id="Path_17" data-name="Path 17" d="M4.489,114.98a2.911,2.911,0,0,0,.334-1.4c0-.835-1.64-1.123-1.671-2.065H2.227c.03,1.246,1.671,1.458,1.671,2.126a3.287,3.287,0,0,1-.243,1.336,2.913,2.913,0,0,0-2.673,2.93v1.549a2.916,2.916,0,0,0,2.34,2.772v-.77a2.1,2.1,0,0,1-1.4-2.169V118c0-1.412.744-2.323,2-2.323a2.069,2.069,0,0,1,2,2.277v1.428a2,2,0,0,1-1.383,2.079v.762a2.987,2.987,0,0,0,2.34-2.749v-1.564a3.106,3.106,0,0,0-2.4-2.93" transform="translate(-0.407 -46.24)" fill="#212121"/>
      <path id="Path_18" data-name="Path 18" d="M34.656,111.518a2.96,2.96,0,0,0-2.217,1.033,2.571,2.571,0,0,0-1.107-.836v.855a1.824,1.824,0,0,1,.88,1.682v4.205c0,1.943-.577,3.1-1.974,3.1-1.306,0-1.929-.774-1.929-3.447v-2.521c0-2.14.582-3.215,1.8-3.288v-.776c-1.559.054-2.723,1.074-2.723,3.791v2.9c0,2.855,1.124,4.085,2.855,4.085,1.837,0,2.9-1.579,2.9-3.887v-4.16a1.946,1.946,0,0,0-.44-1.23,2.423,2.423,0,0,1,1.746-.729,1.813,1.813,0,0,1,1.731.759v-.015a4.128,4.128,0,0,1,.41,2.019v1.594a7.3,7.3,0,0,1-2.262,5.648h1a7.416,7.416,0,0,0,2.187-5.724v-1.063c0-2.9-1-3.993-2.855-3.993" transform="translate(-11.354 -46.24)" fill="#212121"/>
      <path id="Path_19" data-name="Path 19" d="M139.251,113.128a2.009,2.009,0,0,0-1.928-1.61c-.911,0-1.549.562-1.9,1.716a2.28,2.28,0,0,0-2.217-1.64c-1.7,0-2.581,1.352-2.581,3.052v.516q0,2.984,4.388,5.33a20.8,20.8,0,0,0-2.141.455c.182.243.364.517.561.76a5.389,5.389,0,0,1,2.551-.7,4.983,4.983,0,0,1,3.325,1.139h1.351a4.927,4.927,0,0,0-3.188-1.671c-3.006-.607-5.906-2.642-5.906-5.238v-.546c0-1.549.683-2.323,1.64-2.323,1.139,0,1.716.41,1.716,1.959v1.64h.835v-1.609c0-1.488.683-2.065,1.564-2.065,1.017,0,1.534.607,1.534,2.125v1.548h.85V114.4c0-1.359.493-1.853,1.2-1.991v-.763a2.3,2.3,0,0,0-1.655,1.479" transform="translate(-54.164 -46.24)" fill="#212121"/>
      <path id="Path_20" data-name="Path 20" d="M149.628,111.858v.843a1.894,1.894,0,0,1,.93,1.6v.592a4.678,4.678,0,0,1-1.853,3.613h.9a4.906,4.906,0,0,0,1.868-3.553v-.729a2.613,2.613,0,0,0-1.842-2.367" transform="translate(-61.66 -46.381)" fill="#212121"/>
      <path id="Path_21" data-name="Path 21" d="M99.48,111.518c-1.458,0-2.763.9-2.763,1.807v.455h.926v-.455c0-.562.638-1.033,1.822-1.033,1.139,0,1.959.592,1.959,1.306v2.384l-.076.015a2.075,2.075,0,0,0-1.989-1.2,2.988,2.988,0,0,0-2.976,3.006v1.488a2.764,2.764,0,0,0,2.341,2.949v-.78a2.014,2.014,0,0,1-1.4-2.169V117.8a2.121,2.121,0,0,1,2.019-2.262c1.154,0,1.99.668,1.99,2.233v1.518a2.013,2.013,0,0,1-1.384,2.168v.779a2.743,2.743,0,0,0,2.34-2.764V113.6c0-1.2-1.442-2.08-2.809-2.08" transform="translate(-39.964 -46.24)" fill="#212121"/>
      <path id="Path_22" data-name="Path 22" d="M66.4,111.512c-1.458,0-2.763.9-2.763,1.807v.455h.926v-.455c0-.562.638-1.033,1.822-1.033,1.139,0,1.959.592,1.959,1.306v2.384l-.076.015a2.075,2.075,0,0,0-1.989-1.2A2.988,2.988,0,0,0,63.3,117.8v1.488a2.763,2.763,0,0,0,2.341,2.949v-.78a2.014,2.014,0,0,1-1.4-2.169V117.8a2.121,2.121,0,0,1,2.019-2.262c1.154,0,1.99.668,1.99,2.233v1.518a2.013,2.013,0,0,1-1.384,2.168v.779a2.743,2.743,0,0,0,2.34-2.764v-5.876c0-1.2-1.442-2.08-2.809-2.08" transform="translate(-26.247 -46.238)" fill="#212121"/>
    </g>
  </g>
  <g id="Group_4" data-name="Group 4" transform="translate(28.62 0.361)">
    <g id="Group_3" data-name="Group 3" clip-path="url(#clip-path-2)">
      <path id="Path_23" data-name="Path 23" d="M72.605,0l7,7-7,7" transform="translate(-58.725 -0.361)" fill="#165da7"/>
      <path id="Path_24" data-name="Path 24" d="M72.605,18.97l7-7,7,7" transform="translate(-58.725 -5.322)" fill="#209cd8"/>
      <path id="Path_25" data-name="Path 25" d="M91.575,14.009l-7-7,7-7" transform="translate(-63.687 -0.361)" fill="#81caec"/>
      <path id="Path_26" data-name="Path 26" d="M86.614,0l-7,7-7-7" transform="translate(-58.725 -0.361)" fill="#209cd8"/>
      <path id="Path_27" data-name="Path 27" d="M96.536,0l7,7-7,7" transform="translate(-68.648 -0.361)" fill="#209cd8"/>
      <path id="Path_28" data-name="Path 28" d="M96.536,18.97l7-7,7,7" transform="translate(-68.648 -5.322)" fill="#81caec"/>
      <path id="Path_29" data-name="Path 29" d="M115.506,14.009l-7-7,7-7" transform="translate(-73.609 -0.361)" fill="#209cd8"/>
      <path id="Path_30" data-name="Path 30" d="M110.544,0l-7,7-7-7" transform="translate(-68.648 -0.361)" fill="#81caec"/>
      <path id="Path_31" data-name="Path 31" d="M96.533,23.93l7,7-7,7" transform="translate(-68.647 -10.283)" fill="#f8d10a"/>
      <path id="Path_32" data-name="Path 32" d="M96.533,42.9l7-7,7,7" transform="translate(-68.647 -15.245)" fill="#f4b619"/>
      <path id="Path_33" data-name="Path 33" d="M115.5,37.939l-7-7,7-7" transform="translate(-73.608 -10.283)" fill="#f8d10a"/>
      <path id="Path_34" data-name="Path 34" d="M110.542,23.93l-7,7-7-7" transform="translate(-68.647 -10.283)" fill="#165da7"/>
      <path id="Path_35" data-name="Path 35" d="M72.6,23.93l7,7-7,7" transform="translate(-58.725 -10.283)" fill="#f4b619"/>
      <path id="Path_36" data-name="Path 36" d="M72.6,42.9l7-7,7,7" transform="translate(-58.725 -15.245)" fill="#f8d10a"/>
      <path id="Path_37" data-name="Path 37" d="M91.575,37.939l-7-7,7-7" transform="translate(-63.686 -10.283)" fill="#f4b619"/>
      <path id="Path_38" data-name="Path 38" d="M86.613,23.93l-7,7-7-7" transform="translate(-58.725 -10.283)" fill="#f8d10a"/>
      <path id="Path_39" data-name="Path 39" d="M24.9,0l7,7-7,7" transform="translate(-38.946 -0.361)" fill="#209cd8"/>
      <path id="Path_40" data-name="Path 40" d="M24.9,18.97l7-7,7,7" transform="translate(-38.946 -5.322)" fill="#f4b619"/>
      <path id="Path_41" data-name="Path 41" d="M43.874,14.009l-7-7,7-7" transform="translate(-43.908 -0.361)" fill="#f8d10a"/>
      <path id="Path_42" data-name="Path 42" d="M38.912,0l-7,7-7-7" transform="translate(-38.946 -0.361)" fill="#81caec"/>
      <path id="Path_43" data-name="Path 43" d="M48.834,0l7,7-7,7" transform="translate(-48.869 -0.361)" fill="#209cd8"/>
      <path id="Path_44" data-name="Path 44" d="M48.834,18.97l7-7,7,7" transform="translate(-48.869 -5.322)" fill="#165da7"/>
      <path id="Path_45" data-name="Path 45" d="M67.8,14.009l-7-7,7-7" transform="translate(-53.83 -0.361)" fill="#209cd8"/>
      <path id="Path_46" data-name="Path 46" d="M62.843,0l-7,7-7-7" transform="translate(-48.869 -0.361)" fill="#81caec"/>
      <path id="Path_47" data-name="Path 47" d="M48.834,23.931l7,7-7,7" transform="translate(-48.869 -10.283)" fill="#f8d10a"/>
      <path id="Path_48" data-name="Path 48" d="M48.834,42.9l7-7,7,7" transform="translate(-48.869 -15.245)" fill="#f4b619"/>
      <path id="Path_49" data-name="Path 49" d="M67.8,37.939l-7-7,7-7" transform="translate(-53.83 -10.283)" fill="#f8d10a"/>
      <path id="Path_50" data-name="Path 50" d="M62.843,23.931l-7,7-7-7" transform="translate(-48.869 -10.283)" fill="#209cd8"/>
      <path id="Path_51" data-name="Path 51" d="M24.9,23.93l7,7-7,7" transform="translate(-38.946 -10.283)" fill="#209cd8"/>
      <path id="Path_52" data-name="Path 52" d="M24.9,42.9l7-7,7,7" transform="translate(-38.946 -15.245)" fill="#f8d10a"/>
      <path id="Path_53" data-name="Path 53" d="M43.873,37.939l-7-7,7-7" transform="translate(-43.907 -10.283)" fill="#f4b619"/>
      <path id="Path_54" data-name="Path 54" d="M38.911,23.93l-7,7-7-7" transform="translate(-38.946 -10.283)" fill="#f8d10a"/>
      <path id="Path_55" data-name="Path 55" d="M72.605,47.863l7,7-7,7" transform="translate(-58.725 -20.206)" fill="#51ac47"/>
      <path id="Path_56" data-name="Path 56" d="M72.605,66.833l7-7,7,7" transform="translate(-58.725 -25.168)" fill="#0c9448"/>
      <path id="Path_57" data-name="Path 57" d="M91.575,61.871l-7-7,7-7" transform="translate(-63.687 -20.206)" fill="#d7d823"/>
      <path id="Path_58" data-name="Path 58" d="M86.614,47.863l-7,7-7-7" transform="translate(-58.725 -20.206)" fill="#0c9448"/>
      <path id="Path_59" data-name="Path 59" d="M96.536,47.863l7,7-7,7" transform="translate(-68.648 -20.206)" fill="#51ac47"/>
      <path id="Path_60" data-name="Path 60" d="M96.536,66.833l7-7,7,7" transform="translate(-68.648 -25.168)" fill="#0c9448"/>
      <path id="Path_61" data-name="Path 61" d="M115.506,61.871l-7-7,7-7" transform="translate(-73.609 -20.206)" fill="#51ac47"/>
      <path id="Path_62" data-name="Path 62" d="M110.544,47.863l-7,7-7-7" transform="translate(-68.648 -20.206)" fill="#d7d823"/>
      <path id="Path_63" data-name="Path 63" d="M96.534,71.793l7,7-7,7" transform="translate(-68.647 -30.129)" fill="#d7d823"/>
      <path id="Path_64" data-name="Path 64" d="M96.534,90.763l7-7,7,7" transform="translate(-68.647 -35.091)" fill="#51ac47"/>
      <path id="Path_65" data-name="Path 65" d="M115.5,85.8l-7-7,7-7" transform="translate(-73.609 -30.129)" fill="#0c9448"/>
      <path id="Path_66" data-name="Path 66" d="M110.542,71.793l-7,7-7-7" transform="translate(-68.646 -30.129)" fill="#51ac47"/>
      <path id="Path_67" data-name="Path 67" d="M72.6,71.793l7,7-7,7" transform="translate(-58.725 -30.129)" fill="#51ac47"/>
      <path id="Path_68" data-name="Path 68" d="M72.6,90.763l7-7,7,7" transform="translate(-58.725 -35.091)" fill="#0c9448"/>
      <path id="Path_69" data-name="Path 69" d="M91.575,85.8l-7-7,7-7" transform="translate(-63.686 -30.129)" fill="#51ac47"/>
      <path id="Path_70" data-name="Path 70" d="M86.613,71.793l-7,7-7-7" transform="translate(-58.725 -30.129)" fill="#d7d823"/>
      <path id="Path_71" data-name="Path 71" d="M24.9,47.863l7,7-7,7" transform="translate(-38.946 -20.206)" fill="#209cd8"/>
      <path id="Path_72" data-name="Path 72" d="M24.9,66.833l7-7,7,7" transform="translate(-38.946 -25.168)" fill="#51ac47"/>
      <path id="Path_73" data-name="Path 73" d="M43.874,61.871l-7-7,7-7" transform="translate(-43.908 -20.206)" fill="#f8d10a"/>
      <path id="Path_74" data-name="Path 74" d="M38.912,47.863l-7,7-7-7" transform="translate(-38.946 -20.206)" fill="#0c9448"/>
      <path id="Path_75" data-name="Path 75" d="M48.834,47.863l7,7-7,7" transform="translate(-48.869 -20.206)" fill="#f4b619"/>
      <path id="Path_76" data-name="Path 76" d="M48.834,66.833l7-7,7,7" transform="translate(-48.869 -25.168)" fill="#f8d10a"/>
      <path id="Path_77" data-name="Path 77" d="M67.8,61.871l-7-7,7-7" transform="translate(-53.83 -20.206)" fill="#f4b619"/>
      <path id="Path_78" data-name="Path 78" d="M62.843,47.863l-7,7-7-7" transform="translate(-48.869 -20.206)" fill="#f8d10a"/>
      <path id="Path_79" data-name="Path 79" d="M48.832,71.793l7,7-7,7" transform="translate(-48.868 -30.129)" fill="#d7d823"/>
      <path id="Path_80" data-name="Path 80" d="M48.832,90.763l7-7,7,7" transform="translate(-48.868 -35.091)" fill="#0c9448"/>
      <path id="Path_81" data-name="Path 81" d="M67.8,85.8l-7-7,7-7" transform="translate(-53.829 -30.129)" fill="#d7d823"/>
      <path id="Path_82" data-name="Path 82" d="M62.841,71.793l-7,7-7-7" transform="translate(-48.868 -30.129)" fill="#0c9448"/>
      <path id="Path_83" data-name="Path 83" d="M24.9,71.793l7,7-7,7" transform="translate(-38.946 -30.129)" fill="#209cd8"/>
      <path id="Path_84" data-name="Path 84" d="M24.9,90.763l7-7,7,7" transform="translate(-38.946 -35.091)" fill="#165da7"/>
      <path id="Path_85" data-name="Path 85" d="M43.873,85.8l-7-7,7-7" transform="translate(-43.907 -30.129)" fill="#0c9448"/>
      <path id="Path_86" data-name="Path 86" d="M38.912,71.793l-7,7-7-7" transform="translate(-38.946 -30.129)" fill="#51ac47"/>
      <rect id="Rectangle_10" data-name="Rectangle 10" width="3.232" height="1.693" transform="translate(-4.918 69.431)" fill="#f4b619"/>
    </g>
  </g>
</svg>
