<?xml version="1.0" encoding="utf-8"?>
<!-- Generator: Adobe Illustrator 27.0.0, SVG Export Plug-In . SVG Version: 6.00 Build 0)  -->
<svg version="1.1" id="Layer_1" xmlns="http://www.w3.org/2000/svg" xmlns:xlink="http://www.w3.org/1999/xlink" x="0px" y="0px"
	 viewBox="0 0 133.7 23" style="enable-background:new 0 0 133.7 23;" xml:space="preserve">
<style type="text/css">
	.st0{fill-rule:evenodd;clip-rule:evenodd;fill:#040405;}
	.st1{fill-rule:evenodd;clip-rule:evenodd;fill:#EE1E39;}
	.st2{fill-rule:evenodd;clip-rule:evenodd;fill:#FFFFFF;}
	.st3{fill:#FFFFFF;}
</style>
<g>
	<g>
		<path id="Path_2233_00000052066585484489924330000011317801943151363745_" class="st0" d="M5.1,19c0.3,0.6,1,1,1.7,1
			c1,0,1.8-0.7,1.9-1.7c0-3.1-6.6-3.1-6.6-8.3c0-2.5,2.1-4.5,4.7-4.5c1.7,0,3.3,0.9,4.2,2.5l0,0c0.4,0.7,0.1,1.5-0.6,1.9h0
			c-0.7,0.4-1.5,0.1-1.9-0.6l0,0c-0.3-0.6-1-1-1.7-1C5.8,8.2,5,9,4.9,9.9c0,3.1,6.6,3.1,6.6,8.3c0,2.5-2.1,4.5-4.7,4.5
			c-1.7,0-3.3-0.9-4.2-2.5l0,0c-0.4-0.7-0.1-1.5,0.6-1.9h0C3.9,18,4.8,18.3,5.1,19L5.1,19z"/>
		<path id="Path_2234_00000018953013301589911770000013373098416682831270_" class="st1" d="M70.3,0.1L70.3,0.1
			c0.9,0,1.6,0.7,1.6,1.6c0,0.9-0.7,1.6-1.6,1.6c-0.9,0-1.6-0.7-1.6-1.6C68.7,0.8,69.4,0.1,70.3,0.1"/>
		<path id="Path_2235_00000080911999715785781610000014306329659511567283_" class="st1" d="M31.6,0.1L31.6,0.1
			c0.9,0,1.6,0.7,1.6,1.6c0,0.9-0.7,1.6-1.6,1.6c-0.9,0-1.6-0.7-1.6-1.6C30.1,0.8,30.8,0.1,31.6,0.1"/>
		<path id="Path_2236_00000007397740372561266910000015870789034499701645_" class="st0" d="M60.6,11.3l0,5.5c0,1.5-1.2,2.8-2.8,2.8
			c-1.5,0-2.8-1.2-2.8-2.8v-5.5c0-1.5,1.2-2.8,2.8-2.8C59.4,8.6,60.6,9.8,60.6,11.3C60.6,11.3,60.6,11.3,60.6,11.3 M57.8,5.8
			L57.8,5.8c-3,0-5.5,2.5-5.5,5.5l0,5.5c0,3,2.4,5.6,5.4,5.6c3,0,5.6-2.4,5.6-5.4c0-0.1,0-0.1,0-0.2l0-15.2c0-0.8-0.6-1.4-1.4-1.4
			c-0.8,0-1.4,0.6-1.4,1.4l0,4.9C59.8,6.1,58.8,5.8,57.8,5.8z"/>
		<path id="Path_2237_00000051378222067721129400000008062650703763276209_" class="st0" d="M42.7,5.8L42.7,5.8c3,0,5.5,2.5,5.5,5.5
			V21c0,0.8-0.6,1.4-1.4,1.4c-0.8,0-1.4-0.6-1.4-1.4l0,0l0-9.7c0-1.5-1.2-2.8-2.8-2.8c-1.5,0-2.8,1.2-2.8,2.8c0,0,0,0,0,0l0,9.7
			c0,0.8-0.6,1.4-1.4,1.4c-0.8,0-1.4-0.6-1.4-1.4l0,0l0-9.7C37.2,8.3,39.6,5.8,42.7,5.8"/>
		<path id="Path_2238_00000100378729302252920260000010877473282496841651_" class="st0" d="M20.6,5.8L20.6,5.8c3,0,5.5,2.5,5.5,5.5
			l0,9.7c0,0.8-0.6,1.4-1.4,1.4c-0.8,0-1.4-0.6-1.4-1.4l0-9.7c0-1.5-1.2-2.8-2.8-2.8c-1.5,0-2.8,1.2-2.8,2.8c0,0,0,0,0,0l0,9.7
			c0,0.8-0.6,1.4-1.4,1.4c-0.8,0-1.4-0.6-1.4-1.4l0-19.3c0-0.8,0.6-1.4,1.4-1.4c0.8,0,1.4,0.6,1.4,1.4v4.9
			C18.7,6.1,19.6,5.8,20.6,5.8"/>
	</g>
	<g>
		<path d="M90,10.6c-0.5-2-1.8-3.5-4.4-3.5c-3.7,0-5.3,3.3-5.3,6.7c0,3.4,1.6,6.7,5.3,6.7c2.7,0,4.2-2,4.5-4.6h3
			c-0.2,4.2-3.2,7.1-7.4,7.1c-5.2,0-8.4-4.2-8.4-9.2c0-5,3.1-9.2,8.4-9.2c3.9,0,7.1,2.2,7.4,6H90z"/>
		<path d="M95.8,5h4.3l4.8,13.7h0L109.7,5h4.3v17.5H111V9h0l-4.9,13.5h-2.5L98.8,9h0v13.5h-2.9V5z"/>
		<path d="M119.6,16.7c0,2.7,2,3.7,4.4,3.7c2.7,0,3.7-1.3,3.7-2.6c0-1.3-0.7-1.9-1.4-2.2c-1.2-0.5-2.8-0.8-5.2-1.4
			c-3-0.8-3.9-2.6-3.9-4.4c0-3.5,3.2-5.1,6.4-5.1c3.7,0,6.7,1.9,6.7,5.6h-3.1c-0.1-2.3-1.7-3.1-3.8-3.1c-1.4,0-3.2,0.5-3.2,2.3
			c0,1.2,0.8,1.9,2.1,2.3c0.3,0.1,4.1,1.1,5,1.3c2.3,0.7,3.4,2.6,3.4,4.5c0,3.9-3.5,5.5-7,5.5c-4,0-7.2-1.9-7.3-6.2H119.6z"/>
	</g>
</g>
</svg>
