<svg xmlns="http://www.w3.org/2000/svg" width="91.648" height="91.661" viewBox="0 0 91.648 91.661">
  <g id="noun-beauty-4379279" transform="translate(0)">
    <g id="Group_8185" data-name="Group 8185" transform="translate(0 0)">
      <path id="Path_788" data-name="Path 788" d="M41.665,19.059l1.566,9.889L15.476,56.679C8.187,64.208-3.485,52.57,4.06,45.263L31.8,17.5Z" transform="translate(-1.616 32.542)" fill="#c9c9c9"/>
      <path id="Path_789" data-name="Path 789" d="M75.312,54.654,52.95,51.112,42.666,71.288a3.247,3.247,0,0,1-6.066-.962L33.058,47.96,10.692,44.418a3.248,3.248,0,0,1-.962-6.066l20.176-10.28L26.364,5.706a3.248,3.248,0,0,1,5.473-2.789L47.849,18.929,68.025,8.649a3.249,3.249,0,0,1,4.344,4.344L62.088,33.169,78.1,49.181a3.249,3.249,0,0,1-2.788,5.473Z" transform="translate(12.638 -2.006)" fill="#c9c9c9"/>
    </g>
  </g>
</svg>
