<svg xmlns="http://www.w3.org/2000/svg" width="106.948" height="101.052" viewBox="0 0 106.948 101.052">
  <g id="noun-food-6915508" transform="translate(0)">
    <path id="Path_780" data-name="Path 780" d="M29.547,43.47a14.325,14.325,0,0,1,0-16.705L35,30.8a7.51,7.51,0,0,0,0,8.632,14.325,14.325,0,0,1,0,16.705L29.547,52.1A7.492,7.492,0,0,0,29.547,43.47Zm32.791-4.49L67.652,43.2a13.687,13.687,0,0,0,0-16.889,6.94,6.94,0,0,1,0-8.447l-5.315-4.224a13.687,13.687,0,0,0,0,16.889A6.924,6.924,0,0,1,62.337,38.98ZM94.911,52.009l5.315,4.224a13.687,13.687,0,0,0,0-16.889,6.94,6.94,0,0,1,0-8.447l-5.315-4.224a13.687,13.687,0,0,0,0,16.889,6.924,6.924,0,0,1,0,8.447Zm23.561,55.9V114.7H11.524v-6.786h4.6A48.946,48.946,0,0,1,61.6,62.428v-8.67h6.786v8.67a48.946,48.946,0,0,1,45.482,45.482ZM32.023,96.917l6.221,2.714A29.193,29.193,0,0,1,65,82.123V75.337A35.992,35.992,0,0,0,32.023,96.916Z" transform="translate(-11.524 -13.644)" fill="#c9c9c9"/>
  </g>
</svg>
