<svg xmlns="http://www.w3.org/2000/svg" width="94.698" height="111.91" viewBox="0 0 94.698 111.91">
  <g id="_02-Shopping-bag" data-name="02-Shopping-bag" transform="translate(0 0)">
    <path id="Path_790" data-name="Path 790" d="M4.369,100.756,11.439,33.3a4.017,4.017,0,0,1,4.017-3.616H87.77A4.017,4.017,0,0,1,91.787,33.3l7.071,67.452a12.052,12.052,0,0,1-12.052,13.3H16.341a12.052,12.052,0,0,1-12.052-13.3ZM51.613,73.88a24.1,24.1,0,0,0,24.1-24.1,4.017,4.017,0,0,0-8.035,0,16.07,16.07,0,1,1-32.139,0,4.017,4.017,0,1,0-8.035,0A24.1,24.1,0,0,0,51.613,73.88ZM67.161,21.654H75.2a24.1,24.1,0,0,0-47.325,0h8.035a16.07,16.07,0,0,1,31.095,0Z" transform="translate(-4.224 -2.144)" fill="#c9c9c9"/>
  </g>
</svg>
