<svg xmlns="http://www.w3.org/2000/svg" width="90.972" height="93.997" viewBox="0 0 90.972 93.997">
  <g id="noun-shop-4645344" transform="translate(0)">
    <path id="Path_791" data-name="Path 791" d="M89.782,74.99a2.718,2.718,0,0,1-2.651,2.169H40.856l1.205,6.146H83.4c3.495,0,3.495,5.3,0,5.3H39.771a2.62,2.62,0,0,1-2.651-2.29C33.022,63.06,28.8,39.681,24.707,16.3H14.946c-3.495,0-3.495-5.3,0-5.3H27a2.62,2.62,0,0,1,2.651,2.29L32.54,29.679h68.088a2.639,2.639,0,0,1,2.41,3.736L89.782,74.99ZM76.767,90.054A7.472,7.472,0,1,1,69.3,97.526a7.286,7.286,0,0,1,7.472-7.472Zm-28.922,0a7.472,7.472,0,1,1-7.472,7.472A7.286,7.286,0,0,1,47.845,90.054Z" transform="translate(-12.325 -11)" fill="#c9c9c9" fill-rule="evenodd"/>
  </g>
</svg>
