<svg xmlns="http://www.w3.org/2000/svg" width="119.065" height="49.233" viewBox="0 0 119.065 49.233">
  <g id="noun-dumbbell-2607711" transform="translate(0)">
    <g id="Group_8184" data-name="Group 8184" transform="translate(0 0)">
      <path id="Path_786" data-name="Path 786" d="M30.762,33.47H18.022A8.025,8.025,0,0,0,10,41.492V74.681A8.025,8.025,0,0,0,18.022,82.7h12.74a8.025,8.025,0,0,0,8.022-8.022V41.492A8.035,8.035,0,0,0,30.762,33.47Z" transform="translate(-10 -33.47)" fill="#c9c9c9"/>
      <path id="Path_787" data-name="Path 787" d="M91.422,33.47H78.682a8.025,8.025,0,0,0-8.022,8.022V74.681A8.025,8.025,0,0,0,78.682,82.7h12.74a8.025,8.025,0,0,0,8.022-8.022V41.492A8.016,8.016,0,0,0,91.422,33.47Z" transform="translate(19.621 -33.47)" fill="#c9c9c9"/>
      <rect id="Rectangle_91" data-name="Rectangle 91" width="58.342" height="12.308" transform="translate(30.362 18.455)" fill="#c9c9c9"/>
    </g>
  </g>
</svg>
