<svg xmlns="http://www.w3.org/2000/svg" width="30" height="30" viewBox="0 0 30 30">
  <g id="Group_18" data-name="Group 18" transform="translate(-1727 -995)">
    <path id="tiktok-svgrepo-com" d="M15.709,5.579a3.661,3.661,0,0,1-2.88-3.242V2H10.2V12.443a2.212,2.212,0,0,1-3.973,1.331h0a2.211,2.211,0,0,1,2.431-3.445V7.656a4.834,4.834,0,1,0,4.173,4.787V7.108a6.249,6.249,0,0,0,3.646,1.166V5.659A3.69,3.69,0,0,1,15.709,5.579Z" transform="translate(1731.84 1000)" fill="#fff"/>
    <g id="Ellipse_3" data-name="Ellipse 3" transform="translate(1727 995)" fill="none" stroke="#fff" stroke-width="0.5" opacity="0.5">
      <circle cx="15" cy="15" r="15" stroke="none"/>
      <circle cx="15" cy="15" r="14.75" fill="none"/>
    </g>
  </g>
</svg>
