<svg xmlns="http://www.w3.org/2000/svg" width="30" height="30" viewBox="0 0 30 30">
  <g id="Group_17" data-name="Group 17" transform="translate(-1680 -995)">
    <path id="Path_702" data-name="Path 702" d="M25.791,18c-2.116,0-2.381.009-3.212.047a5.717,5.717,0,0,0-1.891.362,3.985,3.985,0,0,0-2.279,2.278,5.691,5.691,0,0,0-.362,1.891c-.037.831-.047,1.1-.047,3.213s.009,2.381.047,3.212a5.725,5.725,0,0,0,.362,1.891,3.987,3.987,0,0,0,2.278,2.279,5.722,5.722,0,0,0,1.891.362c.831.038,1.1.047,3.212.047s2.381-.009,3.212-.047a5.725,5.725,0,0,0,1.892-.362,3.992,3.992,0,0,0,2.278-2.279A5.774,5.774,0,0,0,33.534,29c.037-.831.047-1.1.047-3.212s-.01-2.381-.047-3.212a5.772,5.772,0,0,0-.362-1.891,3.986,3.986,0,0,0-2.279-2.278A5.735,5.735,0,0,0,29,18.047c-.831-.038-1.1-.047-3.212-.047Zm-.7,1.4h.7c2.08,0,2.327.007,3.148.045a4.313,4.313,0,0,1,1.446.268A2.581,2.581,0,0,1,31.864,21.2a4.3,4.3,0,0,1,.268,1.446c.037.821.045,1.068.045,3.147s-.008,2.326-.045,3.147a4.309,4.309,0,0,1-.268,1.446,2.583,2.583,0,0,1-1.478,1.478,4.3,4.3,0,0,1-1.446.268c-.821.037-1.068.045-3.148.045s-2.327-.008-3.148-.045A4.322,4.322,0,0,1,21.2,31.86a2.581,2.581,0,0,1-1.479-1.478,4.3,4.3,0,0,1-.268-1.446c-.037-.821-.045-1.068-.045-3.148s.007-2.326.045-3.147a4.313,4.313,0,0,1,.268-1.446A2.582,2.582,0,0,1,21.2,19.714a4.3,4.3,0,0,1,1.447-.269c.719-.032,1-.042,2.449-.044ZM29.95,20.7a.935.935,0,1,0,.935.935.935.935,0,0,0-.935-.935ZM25.791,21.79a4,4,0,1,0,4,4,4,4,0,0,0-4-4Zm0,1.4a2.6,2.6,0,1,1-2.6,2.6A2.6,2.6,0,0,1,25.791,23.194Z" transform="translate(1669 984)" fill="#fff"/>
    <g id="Ellipse_2" data-name="Ellipse 2" transform="translate(1680 995)" fill="none" stroke="#fff" stroke-width="0.5" opacity="0.5">
      <circle cx="15" cy="15" r="15" stroke="none"/>
      <circle cx="15" cy="15" r="14.75" fill="none"/>
    </g>
  </g>
</svg>
