<svg xmlns="http://www.w3.org/2000/svg" width="110.884" height="56.892" viewBox="0 0 110.884 56.892">
  <g id="Group_8173" data-name="Group 8173" transform="translate(0 0)" opacity="0.7">
    <path id="Path_737" data-name="Path 737" d="M109.511,871.174A16.967,16.967,0,0,0,122.2,885.821a17.6,17.6,0,0,0,15.746-3.491,13.624,13.624,0,0,0,2.505-2.581,9.1,9.1,0,0,1,.8-1l.032,7.64,2.7.008.011-31.338-2.7-.033c-.286,4.434.377,13.68-.264,17.128a14.173,14.173,0,0,1-7.5,9.951,14.845,14.845,0,0,1-18.6-4.172,13.624,13.624,0,0,1-1.619-2.775,19.3,19.3,0,0,1-1-3.313,81.444,81.444,0,0,1-.167-8.359c0-1.376.08-7.649-.033-8.457l-2.657,0c-.1,1.12-.027,6.585-.028,8.16a77.68,77.68,0,0,0,.083,7.983" transform="translate(-109.364 -853.711)" fill="#eb008b" fill-rule="evenodd"/>
    <path id="Path_738" data-name="Path 738" d="M161.166,862.625l0-7.581h-2.692l0,31.362h2.685c.129-1.853.013-8.38.013-10.747,0-3.716-.178-6.521,1.276-9.613,5.24-11.148,21.371-11.162,26.6.021,1.444,3.087,1.262,5.78,1.262,9.492,0,1.8-.1,9.784.024,10.841l2.661,0c.118-1.3.026-3.019.026-4.362,0-3.385.191-10.487-.26-13.1-2.116-12.264-17.127-18-27.2-10.662a17.387,17.387,0,0,0-2.362,2.021,16.024,16.024,0,0,0-1.755,2.143c-.27.315-.061.171-.268.181" transform="translate(-119.724 -853.71)" fill="#eb008b" fill-rule="evenodd"/>
    <path id="Subtraction_1" data-name="Subtraction 1" d="M6.976,13.726a7,7,0,0,1-4.661-1.68A6.687,6.687,0,0,1,.08,7.96,6.852,6.852,0,0,1,1.425,2.674,7.074,7.074,0,0,1,5.838.1a7.666,7.666,0,0,1,1.2-.1,6.886,6.886,0,0,1,5.545,11,6.8,6.8,0,0,1-4.493,2.655A8.45,8.45,0,0,1,6.976,13.726ZM6.984,1.634a5.325,5.325,0,0,0-.564.03A5.263,5.263,0,0,0,1.763,7.43a4.969,4.969,0,0,0,5.182,4.682,5.408,5.408,0,0,0,4.027-1.691A5.159,5.159,0,0,0,12.18,6.328,5.26,5.26,0,0,0,6.984,1.634Z" transform="translate(48.562 42.652)" fill="#eb008b" stroke="rgba(0,0,0,0)" stroke-miterlimit="10" stroke-width="1"/>
    <path id="Path_740" data-name="Path 740" d="M208.46,876.2l-2.7-.017c.321,8.986,8.389,16.026,17.479,16a18.313,18.313,0,0,0,6.886-1.4,17.338,17.338,0,0,0,8.681-8.067c.7-1.374,1.991-4.737,1.741-6.542-3.412-.009-2.481-.417-2.87,1.6a14.442,14.442,0,0,1-7.783,10.188,15.042,15.042,0,0,1-14.454-.551,12.448,12.448,0,0,1-2.133-1.56,14.405,14.405,0,0,1-3.192-4,13.993,13.993,0,0,1-1.655-5.655" transform="translate(-129.704 -858.165)" fill="#eb008b" fill-rule="evenodd"/>
    <path id="Path_741" data-name="Path 741" d="M205.762,869.347l2.7.01a14.562,14.562,0,0,1,14.677-13.365c3.554-.009,7.922,1.531,10.124,3.9a13.335,13.335,0,0,1,3.046,3.943,13.8,13.8,0,0,1,1.012,2.474c.314,1.045.327,2.1.58,3l2.686.048c-.551-11.394-12.828-19.307-24.273-14.637-5.773,2.356-10.414,8.291-10.553,14.624" transform="translate(-129.704 -853.358)" fill="#eb008b" fill-rule="evenodd"/>
    <path id="Subtraction_2" data-name="Subtraction 2" d="M6.917,13.741a7.765,7.765,0,0,1-2.388-.367A6.844,6.844,0,0,1,.2,5.229,6.854,6.854,0,0,1,2.469,1.54,6.779,6.779,0,0,1,6.863,0,8.279,8.279,0,0,1,7.968.076a6.548,6.548,0,0,1,4.2,2.271A6.956,6.956,0,0,1,13.8,6.986H1.763a5.034,5.034,0,0,0,4.1,5.144,5.391,5.391,0,0,0,.957.085,5.561,5.561,0,0,0,5.052-3.1,3.985,3.985,0,0,1,1.425.7,6.24,6.24,0,0,1-1.356,1.96A6.959,6.959,0,0,1,6.917,13.741ZM6.9,1.594a5.383,5.383,0,0,0-3.243,1.1,5.144,5.144,0,0,0-1.7,2.867l9.934,0C11.694,3.372,9.454,1.594,6.9,1.594Z" transform="translate(75.071 42.651)" fill="#eb008b" stroke="rgba(0,0,0,0)" stroke-miterlimit="10" stroke-width="1"/>
    <path id="Path_744" data-name="Path 744" d="M139.565,919.528l1.695,0c.064-2.455-.2-5.57.174-7.859a4.682,4.682,0,0,1,4.022-3.956c5.7-.589,3.674,6.573,4.1,11.81l1.658.018c.167-1.856.03-4.434.025-6.361,0-1.967-.14-3.987-1.144-5.268-1.925-2.454-5.929-2.157-7.851-.109a3.9,3.9,0,0,1-.983.883l0-7.2-1.676-.046Z" transform="translate(-115.736 -863.505)" fill="#eb008b" fill-rule="evenodd"/>
    <path id="Path_745" data-name="Path 745" d="M113.98,918.181a5.24,5.24,0,0,0-1.014,1.157c1.849,2.547,7.013,2.541,7.846-1.138.66-2.921-1.732-3.978-3.449-4.932-.877-.486-1.96-1.033-2.228-1.971a1.851,1.851,0,0,1,1.754-2.305c1.573-.12,2.14.884,2.981,1.261l1-1.056c-1.249-1.49-3.933-2.5-6-1.041a3.426,3.426,0,0,0,.088,5.516,28.427,28.427,0,0,0,2.642,1.546c.863.509,1.859,1.044,1.655,2.508a2.4,2.4,0,0,1-2.376,1.839c-1.6.036-2.118-.877-2.895-1.385" transform="translate(-110.124 -864.771)" fill="#eb008b" fill-rule="evenodd"/>
    <path id="Path_746" data-name="Path 746" d="M238.259,918.172a4.4,4.4,0,0,0-1.019,1.159,5.038,5.038,0,0,0,6.057,1.242,3.655,3.655,0,0,0,.945-5.629c-1.165-1.25-4.21-1.958-4.808-3.581a1.832,1.832,0,0,1,1.655-2.374,4.036,4.036,0,0,1,2.956,1.244l1.1-1.045a6.3,6.3,0,0,0-2.6-1.617,3.918,3.918,0,0,0-3.4.57,3.456,3.456,0,0,0,.09,5.528c1.8,1.324,4.641,1.9,4.3,4.044a2.426,2.426,0,0,1-2.376,1.845,4.087,4.087,0,0,1-2.895-1.387" transform="translate(-136.346 -864.764)" fill="#eb008b" fill-rule="evenodd"/>
  </g>
</svg>
