<svg id="noun-slide-4160122" xmlns="http://www.w3.org/2000/svg" width="94.986" height="84.965" viewBox="0 0 94.986 84.965">
  <g id="Group_8206" data-name="Group 8206">
    <path id="Path_795" data-name="Path 795" d="M45,44.8a6.128,6.128,0,0,0-.6,4.6A5.5,5.5,0,0,0,47.3,53l2.4,1.3a8.782,8.782,0,0,0,3.9,1.1l14,.3,7.9,12.5a4.394,4.394,0,0,0,3.7,2,3.891,3.891,0,0,0,2.3-.7,4.384,4.384,0,0,0,1.4-6L73.7,49a4.331,4.331,0,0,0-3.6-2l-9-.2,4.3-8.6c.9,1.2,1.8,2.4,2.5,3.3a3.435,3.435,0,0,0,1.6,1.3l8.7,4.1a3.287,3.287,0,0,0,1.7.4A3.906,3.906,0,0,0,83.5,45a4.02,4.02,0,0,0-1.9-5.3l-7.8-3.6c-1.6-2.2-5.5-7.3-8.4-9.4l-1.5-1.1a6.4,6.4,0,0,0-5.2-1,6.477,6.477,0,0,0-4.2,3.2Z" transform="translate(-2.5 -5.835)" fill="#c9c9c9"/>
    <circle id="Ellipse_6" data-name="Ellipse 6" cx="8.3" cy="8.3" r="8.3" transform="matrix(0.647, -0.762, 0.762, 0.647, 56.398, 12.656)" fill="#c9c9c9"/>
    <path id="Path_796" data-name="Path 796" d="M96.1,85.5,6.7,35.3a2.8,2.8,0,0,0-2.8,0,2.693,2.693,0,0,0-1.4,2.4V88a2.8,2.8,0,0,0,2.8,2.8H94.7a2.791,2.791,0,0,0,2.7-2.1A2.956,2.956,0,0,0,96.1,85.5Z" transform="translate(-2.5 -5.835)" fill="#c9c9c9"/>
    <path id="Path_797" data-name="Path 797" d="M22,35.2l14.2,8a2.279,2.279,0,0,0,1.1.3,2.2,2.2,0,0,0,2-1.2,2.292,2.292,0,0,0-.9-3.1l-14.2-8a2.283,2.283,0,1,0-2.2,4Z" transform="translate(-2.5 -5.835)" fill="#c9c9c9"/>
    <path id="Path_798" data-name="Path 798" d="M30.6,28.3l10.6,5.9a2.279,2.279,0,0,0,1.1.3,2.2,2.2,0,0,0,2-1.2,2.292,2.292,0,0,0-.9-3.1L32.8,24.3a2.283,2.283,0,1,0-2.2,4Z" transform="translate(-2.5 -5.835)" fill="#c9c9c9"/>
    <path id="Path_799" data-name="Path 799" d="M39.3,21.4l6.9,3.9a2.279,2.279,0,0,0,1.1.3,2.2,2.2,0,0,0,2-1.2,2.292,2.292,0,0,0-.9-3.1l-6.9-3.9a2.292,2.292,0,0,0-3.1.9A2.343,2.343,0,0,0,39.3,21.4Z" transform="translate(-2.5 -5.835)" fill="#c9c9c9"/>
  </g>
</svg>
